<svg width="200" height="70" viewBox="0 0 200 70" fill="none" xmlns="http://www.w3.org/2000/svg">
<path d="M164.284 9.57483H166.758V25.305H164.284V9.57483Z" fill="black"/>
<path d="M185.473 17.4389C185.473 12.7908 189.036 9.367 193.547 9.367C196.458 9.367 198.218 10.4064 199.516 11.8615L197.803 13.4809C196.855 12.4415 195.768 11.61 193.477 11.61C190.286 11.61 188.041 14.1046 188.041 17.4306C188.041 20.7567 190.309 23.2616 193.892 23.2616C195.605 23.2616 196.803 22.8687 197.709 22.2659V20.4864H193.5V18.2954H200V23.4549C198.682 24.5421 196.855 25.5129 193.892 25.5129C189.059 25.5129 185.473 22.0892 185.473 17.4389Z" fill="black"/>
<path d="M74.7136 15.1024V11.8117L72.4935 9.25061H72.3771V25.3051H74.7136V15.1024Z" fill="black"/>
<path d="M87.7601 9.25061L80.1725 18.1104L75.4266 12.6349V15.9589L80.0561 21.5113H80.1725L85.5379 15.1024V25.3051H87.8744V9.25061H87.7601Z" fill="black"/>
<path d="M139.877 9.367C135.366 9.367 131.758 12.7908 131.758 17.4389C131.75 18.8799 132.125 20.2972 132.843 21.5466L134.99 20.316C134.55 19.4214 134.326 18.436 134.335 17.4389C134.335 14.1129 136.622 11.6183 139.886 11.6183C143.149 11.6183 145.438 14.1129 145.438 17.4389C145.438 20.765 143.151 23.2699 139.886 23.2699C139.015 23.2891 138.153 23.0949 137.375 22.7043C136.596 22.3137 135.925 21.7385 135.42 21.029L133.342 22.3241C134.106 23.3295 135.095 24.1417 136.229 24.6955C137.364 25.2493 138.613 25.5293 139.875 25.5129C144.386 25.5129 147.995 22.0892 147.995 17.4389C147.995 12.7887 144.388 9.367 139.877 9.367Z" fill="black"/>
<path d="M93.774 23.1056V22.5319V20.4469V18.2953V13.3416V11.7721H101.316V9.57483H91.3003V25.305H101.64V23.1056H93.774Z" fill="black"/>
<path d="M100.462 18.2954H94.4893V20.447H100.462V18.2954Z" fill="black"/>
<path d="M114.088 19.1664L104.717 9.34204H104.532V25.305H106.845V14.9631L114.088 22.5569V19.1664Z" fill="black"/>
<path d="M114.803 9.57483V15.3996V19.9147V23.3052L116.93 25.5357H117.115V9.57483H114.803Z" fill="black"/>
<path d="M126.509 12.4852H124.033V25.305H126.509V12.4852Z" fill="black"/>
<path d="M119.36 9.57483V11.7721H121.11H130.298H131.18V9.57483H119.36Z" fill="black"/>
<path d="M158.246 20.8398C160.304 19.8918 161.391 18.0168 161.391 15.5888C161.391 11.9571 159.008 9.57483 154.682 9.57483H150.658V25.305H153.134V21.5632V19.4241V11.7721H154.589C157.597 11.7721 158.844 13.2065 158.844 15.5888C158.844 17.971 157.622 19.4241 154.591 19.4241H153.855V21.5528H154.687C155.066 21.5542 155.445 21.5313 155.822 21.4842L158.505 25.3008H161.443L158.246 20.8398Z" fill="black"/>
<path d="M172.57 11.5788L170.437 9.34204H170.252V25.305H172.566V14.9631L172.57 14.9693V11.5788Z" fill="black"/>
<path d="M180.524 9.57483V19.9147L173.283 12.3271V15.7176L182.65 25.5357H182.835V9.57483H180.524Z" fill="black"/>
<path d="M100.599 37.6323C100.599 32.9841 104.162 29.5604 108.671 29.5604C111.581 29.5604 113.344 30.5998 114.641 32.0549L112.928 33.6743C111.98 32.6349 110.893 31.8034 108.602 31.8034C105.411 31.8034 103.166 34.2979 103.166 37.624C103.166 40.95 105.432 43.455 109.018 43.455C110.731 43.455 111.928 43.06 112.834 42.4592V40.6777H108.625V38.4887H115.125V43.6483C113.807 44.7355 111.98 45.7063 109.018 45.7063C104.185 45.7063 100.599 42.2908 100.599 37.6323Z" fill="black"/>
<path d="M135.46 37.6323C135.46 32.9841 138.994 29.5604 143.486 29.5604C146.396 29.5604 148.415 30.6933 149.779 32.612L147.883 33.9549C146.843 32.5434 145.498 31.8034 143.418 31.8034C140.299 31.8034 138.027 34.2979 138.027 37.624C138.027 41.0249 140.341 43.455 143.509 43.455C145.546 43.455 147.043 42.69 148.228 41.1683L150.149 42.4863C148.529 44.6378 146.471 45.7021 143.418 45.7021C138.929 45.7063 135.46 42.2908 135.46 37.6323Z" fill="black"/>
<path d="M152.718 29.7682H155.192V45.4984H152.718V29.7682Z" fill="black"/>
<path d="M177.237 41.3575C177.957 42.7461 179.181 43.4841 180.8 43.4841C182.463 43.4841 183.576 42.6983 183.576 41.4261C183.576 39.946 182.466 39.4367 181.081 38.813L179.994 38.3266C177.68 37.308 176.107 36.1065 176.107 33.6535C176.107 31.2483 177.888 29.5604 180.472 29.5604C182.484 29.5604 183.966 30.369 184.96 32.0341L183.089 33.2606C182.486 32.242 181.701 31.7348 180.522 31.7348C179.25 31.7348 178.507 32.4748 178.507 33.562C178.507 34.8093 179.272 35.2957 180.983 36.0566L182.071 36.5409C184.453 37.6053 186.02 38.6925 186.02 41.3533C186.02 44.2449 183.8 45.7021 180.823 45.7021C178.162 45.7021 176.221 44.407 175.156 42.3927L177.237 41.3575Z" fill="black"/>
<path d="M125.442 29.5604C120.931 29.5604 117.335 32.9841 117.335 37.6323C117.323 39.1503 117.735 40.6415 118.526 41.9375L120.665 40.711C120.153 39.7666 119.89 38.7068 119.902 37.6323C119.902 34.3062 122.189 31.8117 125.453 31.8117C128.716 31.8117 131.005 34.3062 131.005 37.6323C131.005 40.9583 128.718 43.4633 125.453 43.4633C124.624 43.4804 123.802 43.3047 123.052 42.9501C122.303 42.5955 121.646 42.0717 121.133 41.4198L119.06 42.7066C119.829 43.6553 120.802 44.4177 121.908 44.9365C123.013 45.4552 124.221 45.717 125.442 45.7021C129.953 45.7021 133.562 42.2784 133.562 37.6281C133.562 32.9779 129.953 29.5604 125.442 29.5604Z" fill="black"/>
<path d="M166.041 29.5604C161.53 29.5604 157.921 32.9841 157.921 37.6323C157.907 39.329 158.425 40.9875 159.403 42.374L161.53 41.1558C160.832 40.1111 160.469 38.8782 160.491 37.6219C160.491 34.2958 162.777 31.8013 166.041 31.8013C169.305 31.8013 171.593 34.2958 171.593 37.6219C171.593 40.948 169.307 43.4529 166.041 43.4529C165.307 43.4664 164.578 43.3299 163.899 43.0518C163.22 42.7737 162.605 42.3598 162.091 41.8356L160.025 43.1307C160.795 43.9516 161.728 44.6035 162.764 45.0451C163.799 45.4866 164.915 45.7083 166.041 45.6959C170.552 45.6959 174.161 42.2721 174.161 37.6219C174.161 32.9717 170.552 29.5604 166.041 29.5604Z" fill="black"/>
<path d="M81.9333 39.3598L72.5621 29.5355H72.3771V45.4964H74.6887V35.1565L81.9333 42.7503V39.3598Z" fill="black"/>
<path d="M82.6483 29.7661V40.1081H82.6462V43.4965L84.7749 45.7291H84.9599V29.7661H82.6483Z" fill="black"/>
<path d="M90.8367 43.299V42.5527H90.8263V32.6993H90.8367V31.9634H98.3785V29.7661H88.3608V45.4963H98.7007V43.299H90.8367Z" fill="black"/>
<path d="M97.5221 38.4887H91.5393V40.6403H97.5221V38.4887Z" fill="black"/>
<path d="M9.09674 14.5224L5.014 11.6475C4.31733 12.638 3.68678 13.6734 3.12646 14.7469L7.55428 17.0627C8.01168 16.1828 8.52696 15.3341 9.09674 14.5224V14.5224Z" fill="#259DA0"/>
<path d="M5.68342 32.9654L0.839844 34.196C1.14136 35.3731 1.52124 36.5287 1.97694 37.6551L6.61263 35.7842C6.24077 34.8662 5.93035 33.9246 5.68342 32.9654Z" fill="#259DA0"/>
<path d="M4.9974 27.4337C4.9974 26.7082 5.03482 25.9931 5.10134 25.2843L0.126806 24.8103C0.0457334 25.6751 0 26.5502 0 27.4337C0 27.7726 0.0124717 28.1052 0.0249444 28.4419L5.01403 28.2611C4.9974 27.9867 4.9974 27.7123 4.9974 27.4337Z" fill="#7CC4C6"/>
<path d="M7.14268 17.861L2.62548 15.7261C2.10504 16.8246 1.65849 17.9565 1.28882 19.1145L6.05132 20.6279C6.3535 19.6824 6.71809 18.7581 7.14268 17.861V17.861Z" fill="#7CC4C6"/>
<path d="M5.06392 29.1508L0.0748291 29.527C0.165066 30.7379 0.335903 31.9414 0.586209 33.1295L5.47551 32.0902C5.27372 31.1205 5.13622 30.1386 5.06392 29.1508Z" fill="#D4ECED"/>
<path d="M17.8859 7.13647L15.7551 2.61926C14.6591 3.13818 13.5987 3.72916 12.5808 4.38831L15.2832 8.58537C16.1177 8.04532 16.9872 7.56129 17.8859 7.13647V7.13647Z" fill="#7CC4C6"/>
<path d="M14.5432 9.08225L11.6724 4.99744C10.681 5.69788 9.73594 6.46169 8.84314 7.2841L12.2295 10.9552C12.9594 10.2816 13.7323 9.65595 14.5432 9.08225V9.08225Z" fill="#259DA0"/>
<path d="M21.5009 5.79977L20.1829 0.979065C19.011 1.29947 17.8617 1.6974 16.7426 2.17021L18.6925 6.77265C19.6059 6.38618 20.5441 6.06117 21.5009 5.79977V5.79977Z" fill="#259DA0"/>
<path d="M27.4295 12.1318C27.8308 12.1318 28.2278 12.1526 28.6207 12.1817L29.0053 7.19262C28.4835 7.15312 27.9659 7.1261 27.4295 7.1261C27.0533 7.1261 26.6791 7.13857 26.307 7.15936L26.5772 12.1484C26.86 12.1484 27.1427 12.1318 27.4295 12.1318Z" fill="#259DA0"/>
<path d="M18.6446 14.9173L15.7717 10.8304C15.037 11.3466 14.337 11.9105 13.6763 12.5184L17.0543 16.1916C17.5554 15.7319 18.0867 15.3062 18.6446 14.9173V14.9173Z" fill="#259DA0"/>
<path d="M14.9235 18.6301L10.8408 15.7551C10.3237 16.4863 9.85427 17.2501 9.43555 18.0418L13.8634 20.3555C14.1792 19.7581 14.5333 19.1818 14.9235 18.6301V18.6301Z" fill="#259DA0"/>
<path d="M16.6178 16.6137L13.0839 13.0798C12.4498 13.7159 11.8582 14.393 11.3127 15.1066L15.277 18.1437C15.69 17.605 16.1379 17.0939 16.6178 16.6137Z" fill="#D4ECED"/>
<path d="M33.7033 13.483L35.7634 8.9263C34.9417 8.55724 34.0957 8.2447 33.2315 7.99084L31.8137 12.7721C32.4586 12.9671 33.0898 13.2046 33.7033 13.483V13.483Z" fill="#7CC4C6"/>
<path d="M12.6764 23.3739L7.85982 22.0497C7.62091 22.9145 7.44034 23.7945 7.31934 24.6835L12.2731 25.355C12.3643 24.6865 12.499 24.0248 12.6764 23.3739V23.3739Z" fill="#259DA0"/>
<path d="M25.9723 12.2025L25.5025 7.22797C24.6089 7.31279 23.722 7.45795 22.8479 7.66244L23.9725 12.531C24.631 12.3768 25.2991 12.267 25.9723 12.2025V12.2025Z" fill="#D4ECED"/>
<path d="M27.4296 0C25.3463 0.00304809 23.2701 0.242957 21.241 0.715103L21.1683 0.733811L22.297 5.60649C26.4391 4.63075 30.7732 4.85309 34.7936 6.24754C38.8141 7.64198 42.3551 10.151 45.0034 13.4819C47.6517 16.8128 49.2982 20.8282 49.7507 25.0595C50.2031 29.2908 49.4429 33.5635 47.5588 37.379C45.6747 41.1946 42.7443 44.3957 39.1096 46.6087C35.4749 48.8217 31.2858 49.9555 27.0311 49.8776C22.7764 49.7998 18.6316 48.5136 15.0803 46.1691C11.5289 43.8246 8.71761 40.5185 6.97431 36.6365L2.41345 38.6717C4.58189 43.4929 8.09576 47.5858 12.5332 50.4591C16.9707 53.3323 22.1431 54.8638 27.4296 54.8696C42.5569 54.8696 54.8695 42.5631 54.8695 27.4296C54.8695 12.296 42.5569 0 27.4296 0Z" fill="#4D4D4D"/>
<path d="M36.5035 9.28387L34.2917 13.7616C36.7263 14.9836 38.7906 16.8333 40.2714 19.1199C41.7521 21.4064 42.5957 24.0467 42.7148 26.7683C42.834 29.4898 42.2244 32.1938 40.9492 34.6009C39.6739 37.0081 37.7792 39.0312 35.4606 40.4613C33.1421 41.8914 30.4838 42.6766 27.7603 42.7359C25.0369 42.7951 22.347 42.1263 19.9684 40.7984C17.5899 39.4705 15.6089 37.5317 14.2302 35.1822C12.8514 32.8328 12.1249 30.1579 12.1256 27.4338C12.1256 26.9224 12.1526 26.4151 12.2025 25.9142L7.2238 25.5109C7.16352 26.1449 7.12818 26.7852 7.12818 27.4338C7.12624 31.0497 8.09012 34.6006 9.92017 37.7192C11.7502 40.8379 14.38 43.4112 17.5377 45.173C20.6954 46.9349 24.2663 47.8215 27.8814 47.741C31.4964 47.6605 35.0244 46.616 38.1005 44.7154C41.1767 42.8147 43.6894 40.127 45.3788 36.93C47.0683 33.733 47.8732 30.1428 47.7104 26.5305C47.5476 22.9182 46.4229 19.4149 44.4527 16.3829C42.4825 13.3509 39.7382 10.9001 36.5035 9.28387Z" fill="#1C7678"/>
<path d="M126.24 63.5839L125.785 69.7308C127.278 69.8435 128.777 69.8574 130.271 69.7724L129.914 63.615C128.69 63.6868 127.463 63.6764 126.24 63.5839V63.5839Z" fill="#7CC4C6"/>
<path d="M131.016 63.5361L131.621 69.6726C133.113 69.5287 134.595 69.2842 136.055 68.9409L134.639 62.9374C133.446 63.2176 132.235 63.4176 131.016 63.5361V63.5361Z" fill="#259DA0"/>
<path d="M121.532 62.8292L120.025 68.8057C121.478 69.171 122.954 69.439 124.442 69.6081L125.151 63.482C123.932 63.3431 122.723 63.1251 121.532 62.8292V62.8292Z" fill="#259DA0"/>
</svg>
