<svg width="615" height="176" viewBox="0 0 615 176" fill="none" xmlns="http://www.w3.org/2000/svg">
<path d="M442.29 2.06H454.19V77.73H442.29V2.06Z" fill="black"/>
<path d="M544.22 39.89C544.22 17.53 561.36 1.06 583.06 1.06C597.06 1.06 605.53 6.06 611.77 13.06L603.53 20.85C598.97 15.85 593.74 11.85 582.72 11.85C567.37 11.85 556.57 23.85 556.57 39.85C556.57 55.85 567.48 67.9 584.72 67.9C592.96 67.9 598.72 66.01 603.08 63.11V54.55H582.83V44.01H614.1V68.83C607.76 74.06 598.97 78.73 584.72 78.73C561.47 78.73 544.22 62.26 544.22 39.89Z" fill="black"/>
<path d="M11.41 28.65V12.82L0.72998 0.5H0.169983V77.73H11.41V28.65Z" fill="black"/>
<path d="M74.17 0.5L37.67 43.12L14.84 16.78V32.77L37.11 59.48H37.67L63.48 28.65V77.73H74.72V0.5H74.17Z" fill="black"/>
<path d="M324.88 1.06C303.18 1.06 285.82 17.53 285.82 39.89C285.785 46.822 287.586 53.6395 291.04 59.65L301.37 53.73C299.252 49.4267 298.173 44.6863 298.22 39.89C298.22 23.89 309.22 11.89 324.92 11.89C340.62 11.89 351.63 23.89 351.63 39.89C351.63 55.89 340.63 67.94 324.92 67.94C320.732 68.0323 316.585 67.0981 312.84 65.2191C309.096 63.34 305.869 60.5732 303.44 57.16L293.44 63.39C297.115 68.2264 301.872 72.1337 307.331 74.7978C312.789 77.4619 318.797 78.8087 324.87 78.73C346.57 78.73 363.93 62.26 363.93 39.89C363.93 17.52 346.58 1.06 324.88 1.06Z" fill="black"/>
<path d="M103.1 67.15V64.39V54.36V44.01V20.18V12.63H139.38V2.06H91.2V77.73H140.94V67.15H103.1Z" fill="black"/>
<path d="M135.27 44.01H106.54V54.36H135.27V44.01Z" fill="black"/>
<path d="M200.82 48.2L155.74 0.940002H154.85V77.73H165.98V27.98L200.82 64.51V48.2Z" fill="black"/>
<path d="M204.26 2.06V30.08V51.8V68.11L214.49 78.84H215.38V2.06H204.26Z" fill="black"/>
<path d="M260.57 16.06H248.66V77.73H260.57V16.06Z" fill="black"/>
<path d="M226.18 2.06V12.63H234.6H278.8H283.04V2.06H226.18Z" fill="black"/>
<path d="M413.24 56.25C423.14 51.69 428.37 42.67 428.37 30.99C428.37 13.52 416.91 2.06 396.1 2.06H376.74V77.73H388.65V59.73V49.44V12.63H395.65C410.12 12.63 416.12 19.53 416.12 30.99C416.12 42.45 410.24 49.44 395.66 49.44H392.12V59.68H396.12C397.945 59.6867 399.769 59.5765 401.58 59.35L414.49 77.71H428.62L413.24 56.25Z" fill="black"/>
<path d="M482.15 11.7L471.89 0.940002H471V77.73H482.13V27.98L482.15 28.01V11.7Z" fill="black"/>
<path d="M520.41 2.06V51.8L485.58 15.3V31.61L530.64 78.84H531.53V2.06H520.41Z" fill="black"/>
<path d="M135.93 137.03C135.93 114.67 153.07 98.2 174.76 98.2C188.76 98.2 197.24 103.2 203.48 110.2L195.24 117.99C190.68 112.99 185.45 108.99 174.43 108.99C159.08 108.99 148.28 120.99 148.28 136.99C148.28 152.99 159.18 165.04 176.43 165.04C184.67 165.04 190.43 163.14 194.79 160.25V151.68H174.54V141.15H205.81V165.97C199.47 171.2 190.68 175.87 176.43 175.87C153.18 175.87 135.93 159.44 135.93 137.03Z" fill="black"/>
<path d="M303.63 137.03C303.63 114.67 320.63 98.2 342.24 98.2C356.24 98.2 365.95 103.65 372.51 112.88L363.39 119.34C358.39 112.55 351.92 108.99 341.91 108.99C326.91 108.99 315.98 120.99 315.98 136.99C315.98 153.35 327.11 165.04 342.35 165.04C352.15 165.04 359.35 161.36 365.05 154.04L374.29 160.38C366.5 170.73 356.6 175.85 341.91 175.85C320.32 175.87 303.63 159.44 303.63 137.03Z" fill="black"/>
<path d="M386.65 99.2H398.55V174.87H386.65V99.2Z" fill="black"/>
<path d="M504.6 154.95C508.06 161.63 513.95 165.18 521.74 165.18C529.74 165.18 535.09 161.4 535.09 155.28C535.09 148.16 529.75 145.71 523.09 142.71L517.86 140.37C506.73 135.47 499.16 129.69 499.16 117.89C499.16 106.32 507.73 98.2 520.16 98.2C529.84 98.2 536.97 102.09 541.75 110.1L532.75 116C529.85 111.1 526.07 108.66 520.4 108.66C514.28 108.66 510.71 112.22 510.71 117.45C510.71 123.45 514.39 125.79 522.62 129.45L527.85 131.78C539.31 136.9 546.85 142.13 546.85 154.93C546.85 168.84 536.17 175.85 521.85 175.85C509.05 175.85 499.71 169.62 494.59 159.93L504.6 154.95Z" fill="black"/>
<path d="M255.44 98.2C233.74 98.2 216.44 114.67 216.44 137.03C216.382 144.333 218.366 151.506 222.17 157.74L232.46 151.84C229.994 147.297 228.731 142.199 228.79 137.03C228.79 121.03 239.79 109.03 255.49 109.03C271.19 109.03 282.2 121.03 282.2 137.03C282.2 153.03 271.2 165.08 255.49 165.08C251.502 165.162 247.549 164.317 243.943 162.611C240.337 160.906 237.176 158.386 234.71 155.25L224.74 161.44C228.437 166.004 233.12 169.671 238.437 172.167C243.754 174.662 249.567 175.922 255.44 175.85C277.14 175.85 294.5 159.38 294.5 137.01C294.5 114.64 277.14 98.2 255.44 98.2Z" fill="black"/>
<path d="M450.74 98.2C429.04 98.2 411.68 114.67 411.68 137.03C411.611 145.192 414.105 153.17 418.81 159.84L429.04 153.98C425.682 148.954 423.938 143.023 424.04 136.98C424.04 120.98 435.04 108.98 450.74 108.98C466.44 108.98 477.45 120.98 477.45 136.98C477.45 152.98 466.45 165.03 450.74 165.03C447.21 165.095 443.704 164.438 440.437 163.101C437.17 161.763 434.211 159.772 431.74 157.25L421.8 163.48C425.506 167.429 429.992 170.565 434.974 172.689C439.956 174.813 445.325 175.88 450.74 175.82C472.44 175.82 489.8 159.35 489.8 136.98C489.8 114.61 472.44 98.2 450.74 98.2Z" fill="black"/>
<path d="M46.14 145.34L1.05997 98.08H0.169983V174.86H11.29V125.12L46.14 161.65V145.34Z" fill="black"/>
<path d="M49.58 99.19V148.94H49.57V165.24L59.81 175.98H60.7V99.19H49.58Z" fill="black"/>
<path d="M88.97 164.29V160.7H88.92V113.3H88.97V109.76H125.25V99.19H77.06V174.86H126.8V164.29H88.97Z" fill="black"/>
<path d="M121.13 141.15H92.35V151.5H121.13V141.15Z" fill="black"/>
</svg>
