<svg width="264" height="264" viewBox="0 0 264 264" fill="none" xmlns="http://www.w3.org/2000/svg">
<path d="M43.76 69.86L24.12 56.03C20.7686 60.7948 17.7354 65.7757 15.04 70.94L36.34 82.08C38.5403 77.847 41.0191 73.7647 43.76 69.86Z" fill="#259DA0"/>
<path d="M27.34 158.58L4.03998 164.5C5.4904 170.162 7.31782 175.721 9.50998 181.14L31.81 172.14C30.0211 167.724 28.5278 163.194 27.34 158.58Z" fill="#259DA0"/>
<path d="M24.04 131.97C24.04 128.48 24.22 125.04 24.54 121.63L0.610001 119.35C0.220001 123.51 0 127.72 0 131.97C0 133.6 0.0599951 135.2 0.119995 136.82L24.12 135.95C24.04 134.63 24.04 133.31 24.04 131.97Z" fill="#7CC4C6"/>
<path d="M34.36 85.92L12.63 75.65C10.1264 80.9342 7.97831 86.3797 6.19998 91.95L29.11 99.23C30.5636 94.6821 32.3175 90.2357 34.36 85.92Z" fill="#7CC4C6"/>
<path d="M24.36 140.23L0.359985 142.04C0.79407 147.865 1.61588 153.654 2.81998 159.37L26.34 154.37C25.3692 149.705 24.7078 144.982 24.36 140.23Z" fill="#D4ECED"/>
<path d="M86.04 34.33L75.79 12.6C70.5176 15.0963 65.4164 17.9392 60.52 21.11L73.52 41.3C77.5344 38.7021 81.717 36.3736 86.04 34.33Z" fill="#7CC4C6"/>
<path d="M69.96 43.69L56.15 24.04C51.3809 27.4095 46.8348 31.0838 42.54 35.04L58.83 52.7C62.3415 49.4594 66.0593 46.4498 69.96 43.69Z" fill="#259DA0"/>
<path d="M103.43 27.9L97.09 4.70999C91.4525 6.25131 85.9236 8.16553 80.54 10.44L89.92 32.58C94.3141 30.7209 98.8275 29.1574 103.43 27.9Z" fill="#259DA0"/>
<path d="M131.95 58.36C133.88 58.36 135.79 58.46 137.68 58.6L139.53 34.6C137.02 34.41 134.53 34.28 131.95 34.28C130.14 34.28 128.34 34.34 126.55 34.44L127.85 58.44C129.21 58.44 130.57 58.36 131.95 58.36Z" fill="#259DA0"/>
<path d="M89.69 71.76L75.87 52.1C72.3358 54.583 68.9685 57.2955 65.79 60.22L82.04 77.89C84.4505 75.6785 87.0062 73.6306 89.69 71.76Z" fill="#259DA0"/>
<path d="M71.79 89.62L52.15 75.79C49.6623 79.3074 47.4042 82.9817 45.39 86.79L66.69 97.92C68.2092 95.0463 69.9128 92.2738 71.79 89.62Z" fill="#259DA0"/>
<path d="M79.94 79.92L62.94 62.92C59.8898 65.9802 57.0437 69.2372 54.42 72.67L73.49 87.28C75.4769 84.6884 77.6315 82.2298 79.94 79.92Z" fill="#D4ECED"/>
<path d="M162.13 64.86L172.04 42.94C168.087 41.1647 164.018 39.6612 159.86 38.44L153.04 61.44C156.142 62.3782 159.179 63.5207 162.13 64.86Z" fill="#7CC4C6"/>
<path d="M60.98 112.44L37.81 106.07C36.6607 110.23 35.7921 114.463 35.21 118.74L59.04 121.97C59.4789 118.755 60.1269 115.571 60.98 112.44Z" fill="#259DA0"/>
<path d="M124.94 58.7L122.68 34.77C118.381 35.178 114.115 35.8763 109.91 36.86L115.32 60.28C118.488 59.5382 121.702 59.0104 124.94 58.7Z" fill="#D4ECED"/>
<path d="M131.95 0C121.928 0.0146628 111.941 1.16874 102.18 3.44L101.83 3.53L107.26 26.97C127.185 22.2762 148.034 23.3458 167.375 30.0538C186.715 36.7618 203.749 48.8316 216.489 64.8549C229.229 80.8781 237.149 100.194 239.326 120.549C241.502 140.903 237.845 161.457 228.782 179.812C219.718 198.167 205.621 213.565 188.137 224.211C170.652 234.857 150.5 240.311 130.033 239.936C109.566 239.562 89.6272 233.375 72.5436 222.096C55.4601 210.818 41.9362 194.914 33.55 176.24L11.61 186.03C22.0413 209.223 38.9447 228.912 60.2911 242.733C81.6375 256.555 106.52 263.922 131.95 263.95C204.72 263.95 263.95 204.75 263.95 131.95C263.95 59.15 204.72 0 131.95 0Z" fill="#4D4D4D"/>
<path d="M175.6 44.66L164.96 66.2C176.672 72.0784 186.602 80.9767 193.725 91.976C200.849 102.975 204.906 115.677 205.48 128.769C206.053 141.86 203.121 154.868 196.986 166.448C190.851 178.028 181.737 187.76 170.583 194.639C159.43 201.519 146.642 205.296 133.541 205.581C120.44 205.866 107.5 202.648 96.0579 196.261C84.6159 189.873 75.0866 180.546 68.4542 169.244C61.8218 157.942 58.3267 145.074 58.33 131.97C58.33 129.51 58.46 127.07 58.7 124.66L34.75 122.72C34.46 125.77 34.29 128.85 34.29 131.97C34.2807 149.365 38.9174 166.446 47.7209 181.448C56.5243 196.451 69.1749 208.829 84.3649 217.305C99.5549 225.78 116.733 230.045 134.123 229.658C151.513 229.271 168.485 224.246 183.283 215.103C198.08 205.96 210.168 193.031 218.295 177.652C226.422 162.272 230.294 145.002 229.511 127.625C228.728 110.248 223.318 93.3955 213.84 78.8098C204.362 64.2242 191.16 52.4347 175.6 44.66Z" fill="#1C7678"/>
</svg>
